<?xml version="1.0" standalone="no"?>
<!DOCTYPE svg PUBLIC "-//W3C//DTD SVG 20010904//EN"
 "http://www.w3.org/TR/2001/REC-SVG-20010904/DTD/svg10.dtd">
<svg version="1.0" xmlns="http://www.w3.org/2000/svg"
 width="768.000000pt" height="768.000000pt" viewBox="0 0 768.000000 768.000000"
 preserveAspectRatio="xMidYMid meet">
<metadata>
Created by potrace 1.14, written by Peter Selinger 2001-2017
</metadata>
<g transform="translate(0.000000,768.000000) scale(0.100000,-0.100000)"
fill="#000000" stroke="none">
<path d="M4151 7644 c-18 -23 -21 -41 -21 -124 l0 -98 -57 -7 c-52 -6 -104
-16 -155 -31 -16 -5 -18 4 -18 94 0 85 -3 103 -21 126 -27 34 -86 37 -115 5
-16 -18 -19 -40 -22 -155 l-4 -134 -46 -24 c-26 -13 -64 -36 -86 -51 l-39 -26
-91 90 c-52 50 -104 93 -120 97 -42 10 -80 -22 -84 -72 -3 -37 2 -43 73 -114
51 -51 75 -82 75 -98 0 -14 -20 -47 -49 -80 -27 -31 -71 -91 -98 -134 l-49
-76 -89 39 c-106 45 -128 47 -160 14 -54 -53 -22 -106 92 -155 43 -18 81 -36
85 -39 4 -3 -5 -51 -18 -106 -19 -75 -26 -139 -31 -257 l-6 -158 -94 0 c-86 0
-96 -2 -118 -25 -30 -30 -32 -64 -4 -99 20 -25 24 -26 120 -26 l99 0 0 -260 0
-260 -95 0 c-88 0 -98 -2 -120 -25 -30 -29 -32 -64 -5 -98 20 -25 27 -26 118
-29 l97 -3 3 -257 2 -258 -95 0 c-88 0 -98 -2 -120 -25 -33 -33 -32 -70 4
-106 28 -28 33 -29 120 -29 l91 0 0 -255 0 -255 -85 0 c-99 0 -139 -15 -149
-56 -9 -36 9 -79 40 -93 14 -6 63 -11 109 -11 l85 0 0 -175 c0 -149 -2 -175
-15 -175 -8 0 -114 27 -236 60 -121 33 -222 60 -225 60 -2 0 -4 117 -4 260 l0
260 74 0 c59 0 78 4 100 21 32 25 35 75 7 110 -17 21 -30 24 -100 27 l-81 4 0
228 c0 125 -3 248 -6 273 l-7 47 48 20 c58 25 74 44 75 88 0 63 -58 89 -131
58 l-34 -14 -33 58 c-40 72 -120 161 -181 202 -25 17 -48 33 -50 35 -2 1 23
32 57 67 70 72 77 101 37 141 -46 46 -77 36 -174 -59 l-86 -85 -40 9 c-60 14
-173 12 -235 -4 l-55 -15 -91 90 c-74 72 -97 89 -122 89 -39 0 -70 -27 -78
-67 -6 -30 -1 -38 60 -101 36 -38 66 -73 66 -78 0 -5 -13 -17 -29 -27 -46 -27
-137 -131 -176 -202 -20 -36 -38 -65 -40 -65 -2 0 -24 9 -50 20 -87 37 -145
16 -145 -53 0 -42 25 -65 103 -98 l59 -24 -6 -50 c-3 -27 -6 -147 -6 -267 l0
-216 -101 -4 c-92 -3 -103 -5 -120 -27 -28 -35 -25 -85 7 -110 23 -18 41 -21
120 -21 l93 0 3 -255 3 -255 -81 0 c-126 0 -164 -20 -164 -89 0 -53 37 -71
145 -71 l92 0 6 -217 c3 -152 10 -232 20 -265 17 -54 23 -48 -76 -68 -73 -15
-99 -38 -95 -87 2 -25 11 -42 30 -56 27 -20 29 -20 122 -4 l95 17 88 -89 c69
-69 105 -96 163 -124 54 -25 256 -84 710 -206 349 -94 646 -174 660 -179 l25
-7 5 -905 5 -905 26 -77 c88 -257 290 -380 695 -423 166 -17 552 -20 724 -5
383 34 598 140 698 343 63 126 65 148 69 722 l5 520 441 79 c243 43 466 87
495 97 66 23 160 88 202 141 42 51 86 140 99 198 7 28 11 253 11 590 0 452 -3
556 -15 603 -57 218 -236 357 -460 357 -211 0 -370 -114 -453 -324 -13 -34
-17 -101 -22 -381 l-5 -340 -120 -22 c-66 -12 -132 -24 -147 -27 l-28 -6 0
380 0 380 100 0 c94 0 103 2 125 25 30 29 32 74 6 106 -18 22 -28 24 -125 27
l-106 4 0 253 0 253 106 4 c97 3 107 5 125 27 26 32 24 77 -6 106 -22 23 -31
25 -125 25 l-100 0 2 257 3 257 86 -3 c122 -4 159 17 159 89 0 19 -9 36 -26
49 -23 18 -41 21 -125 21 l-99 0 0 260 0 260 105 0 c92 0 108 3 125 20 30 30
27 83 -6 109 -23 18 -41 21 -125 21 l-99 0 0 260 0 260 105 0 c92 0 108 3 125
20 28 28 26 81 -3 108 -21 20 -34 22 -125 22 l-102 0 0 75 c0 108 -18 257 -42
353 -11 46 -19 84 -17 86 2 1 45 19 94 40 99 41 125 64 125 108 0 34 -39 78
-69 78 -11 0 -62 -18 -113 -40 -50 -22 -95 -39 -99 -38 -4 2 -34 44 -67 93
-33 50 -81 111 -106 136 l-46 46 90 92 c50 51 93 104 96 117 12 46 -45 101
-91 90 -13 -3 -67 -48 -121 -100 -69 -66 -102 -92 -110 -85 -6 5 -14 43 -16
84 -6 90 -23 115 -78 115 -42 0 -80 -32 -80 -68 0 -12 -2 -22 -4 -22 -2 0 -52
16 -109 35 -58 19 -142 40 -186 47 l-81 11 0 82 c0 127 -20 165 -89 165 -20 0
-36 -8 -50 -26z"/>
</g>
</svg>
